<?xml version="1.0" standalone="no"?>
<!DOCTYPE svg PUBLIC "-//W3C//DTD SVG 20010904//EN"
 "http://www.w3.org/TR/2001/REC-SVG-20010904/DTD/svg10.dtd">
<svg version="1.0" xmlns="http://www.w3.org/2000/svg"
 width="500.000000pt" height="500.000000pt" viewBox="0 0 500.000000 500.000000"
 preserveAspectRatio="xMidYMid meet">

<g transform="translate(0.000000,500.000000) scale(0.100000,-0.100000)"
fill="#000000" stroke="none">
<path d="M3320 3665 c-215 -36 -408 -140 -571 -306 -48 -48 -95 -101 -105
-118 -10 -17 -21 -31 -25 -31 -4 0 -33 15 -66 33 -154 87 -297 126 -483 134
-273 11 -516 -67 -727 -233 -77 -61 -195 -191 -238 -262 l-29 -49 -126 1
c-141 0 -209 -12 -326 -59 -241 -96 -422 -305 -486 -558 -17 -67 -19 -103 -16
-221 4 -127 8 -151 37 -236 34 -99 93 -204 157 -279 96 -112 262 -213 409
-251 72 -18 111 -20 474 -20 391 0 397 -1 486 -25 l90 -25 1255 0 c1379 0
1302 -3 1439 61 199 92 350 278 396 484 27 121 17 295 -22 401 -49 130 -123
234 -227 316 l-49 39 -2 157 c-2 201 -30 324 -111 485 -95 188 -278 368 -474
467 -194 98 -437 133 -660 95z m444 -139 c365 -109 619 -399 676 -771 8 -53
10 -126 6 -217 l-7 -137 59 -39 c121 -83 221 -224 253 -357 17 -75 15 -220 -6
-290 -55 -193 -194 -342 -378 -406 l-82 -29 -443 0 -444 0 49 38 c59 47 104
97 137 155 198 336 -25 774 -414 816 l-55 6 -7 90 c-17 199 -95 407 -212 560
-17 22 -64 75 -104 117 l-74 77 45 58 c132 171 332 297 547 344 127 28 333 21
454 -15z"/>
</g>
</svg>
